# xmcd
# 
# Track frame offsets:
#     150
#     24357
#     47412
#     66505
# 
# Disc length: 1166
# 
# Revision: 0
# Processed by: cddbd v1.5.2PL0 Copyright (c) Steve Scherf et al.
# Submitted via: fre:ac v1.0.17
# 
DISCID=2c048c04
DTITLE=C.J. - Warm and Easy
DYEAR=1994
DGENRE=REGGAE
TTITLE0=LAST CHRISTMAS (REGGA "X" MIX)   
TTITLE1=PREVAIL PEACE
TTITLE2=NATURE (DUB)
TTITLE3=LAST CHRISTMAS (REGGA JEEP MIX)
EXTD=
EXTT0=
EXTT1=
EXTT2=
EXTT3=
PLAYORDER=
